<svg id="Layer_1" enable-background="new 0 0 128 128" height="512" viewBox="0 0 128 128" width="512" xmlns="http://www.w3.org/2000/svg"><g><g><g><path d="m113.738 122.624h-95.476c-.552 0-1 .447-1 1s.448 1 1 1h95.476c.553 0 1-.447 1-1s-.447-1-1-1z" fill="#e6e7e8"/></g><g><path d="m28.1 117.108h8.46c1.884 0 3.417-1.533 3.417-3.417v-53.59c0-1.884-1.533-3.417-3.417-3.417h-8.46c-1.884 0-3.417 1.533-3.417 3.417v53.59c0 1.883 1.532 3.417 3.417 3.417z" fill="#e6e7e8"/></g><g><path d="m50.256 28.887c-1.884 0-3.417 1.533-3.417 3.417v81.387c0 1.884 1.533 3.417 3.417 3.417h8.46c1.884 0 3.417-1.533 3.417-3.417v-81.387c0-1.884-1.533-3.417-3.417-3.417z" fill="#e6e7e8"/></g><g><path d="m72.414 72.396c-1.884 0-3.417 1.533-3.417 3.417v37.878c0 1.884 1.533 3.417 3.417 3.417h8.46c1.884 0 3.417-1.533 3.417-3.417v-37.878c0-1.884-1.533-3.417-3.417-3.417z" fill="#e6e7e8"/></g><g><path d="m94.571 44.599c-1.885 0-3.418 1.533-3.418 3.417v65.675c0 1.884 1.533 3.417 3.418 3.417h8.46c1.884 0 3.417-1.533 3.417-3.417v-65.675c0-1.884-1.533-3.417-3.417-3.417z" fill="#e6e7e8"/></g><g><path d="m33.912 28.711 21.098-12.8 17.415 21.785c1.226 1.536 3.062 2.418 5.037 2.418 1.325 0 2.599-.4 3.683-1.159l19.24-13.454 1.178 1.517c.758.977 1.942 1.459 3.165 1.289 1.224-.168 2.232-.952 2.698-2.097l4.507-11.067c.467-1.145.292-2.409-.465-3.385-.758-.976-1.938-1.46-3.166-1.289l-11.839 1.63c-1.224.168-2.232.952-2.698 2.096-.466 1.145-.292 2.41.466 3.386l1.214 1.562-17.676 12.36-17.359-21.716c-2.014-2.518-5.611-3.154-8.368-1.482l-22.303 13.53c-1.895 1.15-2.501 3.629-1.352 5.523 1.148 1.894 3.626 2.505 5.525 1.353z" fill="#e6e7e8"/></g></g><g><g fill="#0089ef"><path d="m32.56 53.684h-8.46c-1.335 0-2.417 1.082-2.417 2.417v53.59c0 1.335 1.082 2.417 2.417 2.417h8.46c1.335 0 2.417-1.082 2.417-2.417v-53.59c0-1.335-1.082-2.417-2.417-2.417z"/><path d="m54.717 25.887h-8.46c-1.335 0-2.417 1.082-2.417 2.417v81.387c0 1.335 1.082 2.417 2.417 2.417h8.46c1.335 0 2.417-1.082 2.417-2.417v-81.387c0-1.335-1.082-2.417-2.417-2.417z"/><path d="m76.873 69.395h-8.46c-1.335 0-2.417 1.082-2.417 2.417v37.878c0 1.335 1.082 2.417 2.417 2.417h8.46c1.335 0 2.417-1.082 2.417-2.417v-37.878c.001-1.334-1.082-2.417-2.417-2.417z"/><path d="m99.03 41.598h-8.46c-1.335 0-2.417 1.082-2.417 2.417v65.675c0 1.335 1.082 2.417 2.417 2.417h8.46c1.335 0 2.417-1.082 2.417-2.417v-65.674c.001-1.335-1.082-2.418-2.417-2.418z"/></g><g><path d="m91.153 109.691v-65.675c0-1.335 1.082-2.417 2.417-2.417h-3c-1.335 0-2.417 1.082-2.417 2.417v65.675c0 1.335 1.082 2.417 2.417 2.417h3c-1.334 0-2.417-1.082-2.417-2.417z" fill="#fff"/></g><g><path d="m104.438 7.459-11.839 1.631c-1.843.254-2.721 2.408-1.579 3.877l1.858 2.392-19.306 13.5-17.942-22.447c-1.702-2.128-4.74-2.665-7.069-1.253l-22.302 13.53c-1.426.866-1.881 2.724-1.016 4.151s2.724 1.88 4.15 1.016l21.848-13.255 17.964 22.472c1.068 1.337 2.653 2.042 4.257 2.042 1.079 0 2.166-.319 3.109-.978l20.02-13.999 1.762 2.268c1.141 1.469 3.446 1.152 4.147-.571l4.508-11.068c.701-1.725-.726-3.562-2.57-3.308z" fill="#6dc9f7"/><g fill="#3a2c60"><path d="m109.738 118.624h-95.476c-.552 0-1 .447-1 1s.448 1 1 1h95.476c.553 0 1-.447 1-1s-.447-1-1-1z"/><path d="m24.1 113.108h8.46c1.884 0 3.417-1.533 3.417-3.417v-53.59c0-1.884-1.533-3.417-3.417-3.417h-8.46c-1.884 0-3.417 1.533-3.417 3.417v53.59c0 1.883 1.532 3.417 3.417 3.417zm-1.417-57.007c0-.781.636-1.417 1.417-1.417h8.46c.782 0 1.417.636 1.417 1.417v53.59c0 .781-.636 1.417-1.417 1.417h-8.46c-.781 0-1.417-.636-1.417-1.417z"/><path d="m46.257 24.887c-1.884 0-3.417 1.533-3.417 3.417v81.387c0 1.884 1.533 3.417 3.417 3.417h8.46c1.884 0 3.417-1.533 3.417-3.417v-81.387c0-1.884-1.533-3.417-3.417-3.417zm9.877 3.417v81.387c0 .781-.636 1.417-1.417 1.417h-8.46c-.782 0-1.417-.636-1.417-1.417v-81.387c0-.781.636-1.417 1.417-1.417h8.46c.781 0 1.417.636 1.417 1.417z"/><path d="m68.414 68.396c-1.885 0-3.418 1.533-3.418 3.417v37.878c0 1.884 1.533 3.417 3.418 3.417h8.46c1.884 0 3.417-1.533 3.417-3.417v-37.878c0-1.884-1.533-3.417-3.417-3.417zm9.877 3.417v37.878c0 .781-.636 1.417-1.417 1.417h-8.46c-.782 0-1.418-.636-1.418-1.417v-37.878c0-.781.636-1.417 1.418-1.417h8.46c.781 0 1.417.635 1.417 1.417z"/><path d="m101.447 68.395c-.553 0-1 .447-1 1v5.603c0 .553.447 1 1 1s1-.447 1-1v-5.603c0-.553-.447-1-1-1z"/><path d="m102.447 44.016c0-1.884-1.533-3.417-3.417-3.417h-8.46c-1.884 0-3.417 1.533-3.417 3.417v65.675c0 1.884 1.533 3.417 3.417 3.417h8.46c1.884 0 3.417-1.533 3.417-3.417v-30.843c0-.553-.447-1-1-1s-1 .447-1 1v30.843c0 .781-.636 1.417-1.417 1.417h-8.46c-.781 0-1.417-.636-1.417-1.417v-65.675c0-.781.636-1.417 1.417-1.417h8.46c.781 0 1.417.636 1.417 1.417v21.745c0 .553.447 1 1 1s1-.447 1-1z"/><path d="m29.912 24.711 21.098-12.8 17.415 21.785c1.226 1.536 3.063 2.418 5.038 2.418 1.326 0 2.6-.401 3.682-1.159l19.24-13.454 1.178 1.517c.759.977 1.941 1.458 3.166 1.289 1.224-.169 2.232-.952 2.697-2.097l4.508-11.067c.467-1.145.292-2.409-.465-3.385-.758-.976-1.938-1.46-3.166-1.289l-11.839 1.63c-1.224.168-2.232.952-2.698 2.096-.466 1.145-.292 2.41.466 3.386l1.213 1.562-17.675 12.36-17.359-21.716c-2.014-2.517-5.612-3.154-8.369-1.482l-22.303 13.53c-1.895 1.15-2.501 3.629-1.352 5.523s3.626 2.504 5.525 1.353zm-3.135-5.167 22.302-13.529c1.902-1.154 4.382-.712 5.77 1.021l17.943 22.447c.329.411.921.498 1.354.195l19.305-13.501c.225-.157.375-.399.415-.67.041-.271-.03-.547-.198-.763l-1.857-2.392c-.314-.405-.387-.93-.193-1.404.192-.475.611-.8 1.119-.87l11.839-1.63c.503-.067.998.13 1.313.535.314.404.387.929.193 1.403l-4.509 11.068c-.192.475-.61.8-1.118.869-.506.073-.999-.13-1.313-.534l-1.762-2.268c-.327-.421-.926-.511-1.363-.206l-20.021 14.002c-.744.522-1.621.798-2.534.798-1.364 0-2.631-.607-3.476-1.666l-17.963-22.472c-.196-.245-.487-.376-.782-.376-.178 0-.357.047-.518.146l-21.848 13.254c-.955.578-2.201.272-2.778-.68-.578-.953-.272-2.198.68-2.777z"/></g></g></g></g></svg>