<svg id="Layer_1" enable-background="new 0 0 128 128" height="512" viewBox="0 0 128 128" width="512" xmlns="http://www.w3.org/2000/svg"><g><g><g><path d="m118.17 46.957c-1.473-.082-2.872.428-3.955 1.422-.758.695-1.662 1.044-2.549 1.006-.953-.05-1.71-.803-1.799-1.791-.248-2.75-.87-5.458-1.85-8.049-.343-.902-.004-1.896.806-2.363l1.249-.721c.965-.557 2.177-.639 3.319-.223 2.074.752 4.358.553 6.269-.548 1.837-1.06 3.139-2.86 3.572-4.937.434-2.076-.046-4.253-1.314-5.973-2.018-2.734-5.75-3.755-8.876-2.427-2.394 1.017-4.065 3.15-4.472 5.706-.175 1.101-.841 2.059-1.827 2.628l-1.251.723c-.81.468-1.841.264-2.453-.486-1.422-1.737-3.034-3.317-4.793-4.695-.758-.594-.972-1.608-.508-2.411l2.032-3.52c.561-.972 1.473-1.468 2.139-1.713 1.323-.486 2.357-1.537 2.838-2.882.638-1.79.119-3.839-1.289-5.1-1.093-.979-2.535-1.41-3.963-1.183-1.427.228-2.658 1.075-3.38 2.325-.553.959-.753 2.088-.563 3.179.175.995.031 1.928-.415 2.699l-2.011 3.483c-.47.814-1.46 1.172-2.312.829-1.821-.735-3.721-1.298-5.646-1.673-.898-.175-1.538-1.015-1.489-1.954l.042-.791c.058-1.12.646-1.977 1.128-2.498.958-1.034 1.402-2.439 1.22-3.855-.245-1.884-1.637-3.476-3.463-3.96-1.42-.376-2.901-.104-4.069.746-1.167.851-1.88 2.165-1.956 3.606-.058 1.104.277 2.201.943 3.088.606.806.901 1.703.854 2.594l-.041.786c-.05.954-.803 1.71-1.79 1.799-2.754.249-5.462.872-8.049 1.851-.901.338-1.896.001-2.363-.807l-1.535-2.663c-.486-.841-.608-1.899-.347-2.98.355-1.454.174-2.986-.508-4.314-.757-1.477-2.127-2.607-3.758-3.102-1.629-.494-3.393-.315-4.84.491-1.475.822-2.535 2.17-2.984 3.796s-.232 3.326.612 4.787c.819 1.418 2.139 2.443 3.717 2.885 1.012.284 1.841.911 2.335 1.766l1.537 2.663c.468.81.263 1.842-.485 2.455-1.737 1.42-3.316 3.032-4.695 4.792-.593.757-1.608.972-2.411.508l-2.738-1.581c-.814-.47-1.421-1.31-1.71-2.366-.483-1.766-1.825-3.166-3.589-3.746-1.996-.654-4.277-.044-5.675 1.52-1.117 1.249-1.609 2.898-1.349 4.524.26 1.627 1.227 3.031 2.652 3.854 1.272.734 2.753.921 4.17.528.991-.275 1.959-.183 2.727.261l2.801 1.618c.814.47 1.171 1.464.828 2.313-.735 1.821-1.297 3.721-1.672 5.646-.175.898-1.014 1.526-1.955 1.489l-1.647-.086c-.829-.044-1.576-.32-2.104-.779-.987-.854-2.303-1.198-3.611-.942-1.51.296-2.764 1.444-3.193 2.924-.369 1.273-.148 2.611.605 3.67.754 1.059 1.929 1.706 3.226 1.774.929.047 1.82-.202 2.585-.725.783-.534 1.738-.602 2.397-.571l1.458.077c.953.05 1.709.803 1.798 1.79.249 2.753.872 5.462 1.851 8.048.341.902.002 1.896-.807 2.364l-2.661 1.536c-.84.486-1.898.609-2.98.346-1.456-.354-2.987-.174-4.315.508-1.477.757-2.607 2.127-3.102 3.759-.494 1.629-.315 3.393.491 4.839.821 1.475 2.169 2.535 3.795 2.984 1.625.449 3.327.232 4.787-.611 1.418-.818 2.443-2.138 2.886-3.717.284-1.012.912-1.841 1.767-2.335l2.663-1.538c.809-.468 1.841-.263 2.454.486 1.418 1.735 3.031 3.314 4.792 4.695.758.594.971 1.608.507 2.411l-2.031 3.52c-.562.972-1.474 1.468-2.141 1.713-1.323.487-2.356 1.537-2.836 2.882-.638 1.789-.121 3.838 1.288 5.1 1.094.979 2.538 1.412 3.964 1.183 1.426-.228 2.657-1.075 3.378-2.324.554-.958.753-2.087.562-3.18-.173-.994-.03-1.928.416-2.699l2.011-3.483c.471-.815 1.463-1.17 2.313-.829 1.821.735 3.722 1.298 5.646 1.673.897.175 1.537 1.015 1.488 1.954l-.087 1.647c-.043.829-.319 1.577-.778 2.105-.854.986-1.198 2.302-.942 3.611.297 1.511 1.444 2.764 2.924 3.193 1.273.37 2.611.148 3.67-.605 1.06-.753 1.706-1.93 1.774-3.227.048-.925-.202-1.818-.725-2.584-.535-.784-.605-1.737-.57-2.398l.076-1.456c.05-.954.803-1.71 1.79-1.799 2.751-.248 5.459-.871 8.049-1.851.899-.344 1.896-.001 2.363.806l1.256 2.177c.52.9.632 1.987.315 3.063-.53 1.809-.267 3.765.724 5.366 1.239 2.008 3.454 3.134 5.704 3.134 1.088 0 2.186-.264 3.184-.819 1.571-.875 2.7-2.31 3.179-4.041.479-1.732.248-3.543-.65-5.098-.922-1.596-2.482-2.746-4.282-3.155-1.003-.228-1.878-.877-2.399-1.781l-1.257-2.177c-.468-.81-.264-1.842.485-2.454 1.735-1.419 3.314-3.031 4.695-4.793.593-.758 1.608-.972 2.411-.508l3.52 2.032c.972.561 1.468 1.473 1.714 2.139.485 1.323 1.536 2.357 2.882 2.837 1.789.638 3.84.12 5.1-1.288.98-1.093 1.41-2.538 1.183-3.964-.228-1.426-1.075-2.657-2.324-3.378-.958-.554-2.086-.756-3.179-.562-.995.174-1.928.03-2.7-.416l-3.482-2.011c-.814-.47-1.171-1.464-.828-2.313.747-1.853 1.316-3.787 1.692-5.747.162-.854.884-1.441 1.823-1.394.938.049 1.861.523 2.599 1.333 1.232 1.353 3.061 1.988 4.898 1.707 2.074-.322 3.829-1.901 4.367-3.931.429-1.62.117-3.313-.853-4.644-.972-1.329-2.471-2.141-4.114-2.227z" fill="#e6e7e8"/></g><g><path d="m53.8 96.914c-1.117-.195-2.263.097-3.138.802-.388.313-.925.484-1.512.484h-.335c-.506 0-.94-.354-1.055-.861-.395-1.734-1.084-3.373-2.049-4.872-.289-.448-.237-1.013.125-1.376.373-.373.897-.629 1.517-.74.927-.166 1.74-.688 2.29-1.469.837-1.189.854-2.797.043-4-.605-.897-1.562-1.47-2.624-1.572s-2.104.271-2.858 1.025c-.519.519-.859 1.173-.986 1.893-.109.619-.346 1.115-.738 1.507-.362.362-.928.413-1.376.125-1.498-.964-3.137-1.654-4.872-2.049-.507-.115-.861-.549-.861-1.055v-.336c0-.587.172-1.123.484-1.512.705-.875.997-2.019.802-3.139-.275-1.573-1.509-2.834-3.072-3.137-1.166-.228-2.354.07-3.258.815-.905.746-1.423 1.845-1.423 3.016 0 .885.305 1.751.858 2.44.315.392.488.935.488 1.528v.324c0 .505-.354.939-.861 1.055-1.735.395-3.375 1.085-4.872 2.049-.448.287-1.015.237-1.376-.125-.374-.374-.629-.898-.74-1.517-.166-.928-.688-1.741-1.469-2.29-1.19-.837-2.796-.854-4-.043-.897.604-1.47 1.56-1.573 2.623-.102 1.062.272 2.104 1.026 2.858.518.518 1.172.859 1.893.986.619.109 1.115.346 1.507.738.362.362.413.928.125 1.376-.965 1.499-1.655 3.138-2.049 4.872-.115.507-.549.861-1.055.861h-.336c-.587 0-1.123-.172-1.512-.485-.875-.704-2.02-.997-3.138-.802-1.573.274-2.834 1.508-3.139 3.072-.227 1.167.07 2.354.816 3.258.745.905 1.845 1.423 3.016 1.423.884 0 1.751-.305 2.44-.858.392-.315.935-.488 1.528-.488h.324c.505 0 .939.354 1.055.861.395 1.733 1.084 3.372 2.049 4.872.288.448.237 1.013-.125 1.375-.374.373-.898.629-1.517.74-.927.166-1.741.688-2.291 1.469-.837 1.19-.853 2.798-.042 3.999.604.896 1.56 1.47 2.622 1.572 1.059.104 2.104-.271 2.859-1.026.518-.519.859-1.172.986-1.893.108-.619.346-1.114.738-1.507.362-.362.929-.413 1.376-.125 1.498.964 3.137 1.654 4.873 2.049.506.115.86.549.86 1.055v.335c0 .587-.172 1.124-.485 1.512-.705.875-.997 2.019-.802 3.138.274 1.573 1.508 2.834 3.071 3.138.257.05.514.075.77.075.905 0 1.783-.309 2.488-.89.905-.745 1.423-1.844 1.423-3.016 0-.884-.305-1.75-.858-2.44-.315-.392-.488-.935-.488-1.528v-.324c0-.506.354-.939.861-1.055 1.735-.396 3.374-1.085 4.872-2.049.448-.288 1.014-.236 1.376.126.373.372.629.897.74 1.517.166.927.688 1.741 1.469 2.29 1.188.837 2.795.854 4 .043.897-.605 1.47-1.561 1.572-2.623.102-1.063-.271-2.104-1.026-2.858-.518-.517-1.172-.858-1.893-.986-.619-.109-1.115-.346-1.507-.738-.362-.362-.413-.928-.124-1.376.964-1.498 1.654-3.137 2.049-4.872.115-.507.549-.861 1.055-.861h.324c.593 0 1.136.173 1.528.488.69.554 1.556.858 2.44.858 1.171 0 2.271-.519 3.016-1.423s1.042-2.092.815-3.258c-.299-1.559-1.561-2.794-3.134-3.068z" fill="#e6e7e8"/></g></g><g><g><g><path d="m109.433 19.274c-2.181.926-3.542 2.842-3.875 4.942-.223 1.405-1.083 2.627-2.315 3.338l-1.251.722c-1.249.721-2.816.397-3.728-.719-1.393-1.704-2.95-3.22-4.635-4.541-1.133-.888-1.477-2.451-.757-3.698l2.032-3.52c.59-1.022 1.553-1.745 2.661-2.152.992-.365 1.835-1.146 2.24-2.28.5-1.403.097-3.025-1.013-4.019-1.855-1.661-4.636-1.136-5.81.897-.456.79-.588 1.675-.443 2.507.203 1.16.054 2.352-.534 3.372l-2.011 3.483c-.714 1.236-2.229 1.79-3.553 1.256-1.766-.713-3.596-1.255-5.463-1.618-1.402-.273-2.371-1.563-2.296-2.988l.042-.791c.062-1.179.592-2.259 1.394-3.125.718-.775 1.115-1.854.961-3.048-.191-1.477-1.287-2.74-2.727-3.121-2.407-.638-4.647 1.093-4.77 3.437-.048.912.236 1.759.744 2.435.707.941 1.116 2.071 1.054 3.247l-.041.786c-.077 1.465-1.238 2.611-2.699 2.743-2.624.237-5.241.827-7.784 1.79-1.347.51-2.864.005-3.584-1.242l-1.536-2.661c-.65-1.126-.759-2.453-.452-3.716.288-1.183.167-2.466-.426-3.622-1.329-2.591-4.678-3.611-7.222-2.193-2.565 1.429-3.456 4.675-1.993 7.209.712 1.234 1.85 2.066 3.121 2.423 1.23.345 2.292 1.123 2.931 2.229l1.538 2.663c.721 1.249.397 2.816-.719 3.728-1.704 1.393-3.221 2.95-4.541 4.635-.888 1.133-2.451 1.477-3.698.757l-2.738-1.581c-1.11-.641-1.837-1.733-2.175-2.969-.374-1.365-1.395-2.552-2.936-3.059-1.626-.535-3.477-.039-4.618 1.236-1.955 2.186-1.336 5.462 1.058 6.845 1.073.62 2.296.738 3.402.431 1.18-.328 2.434-.254 3.494.358l2.801 1.617c1.236.714 1.79 2.229 1.256 3.553-.713 1.766-1.255 3.596-1.619 5.463-.273 1.401-1.562 2.371-2.988 2.296l-1.647-.086c-.987-.052-1.961-.374-2.707-1.022-.709-.615-1.69-.927-2.764-.717-1.144.224-2.1 1.101-2.425 2.221-.607 2.093.889 4.06 2.924 4.167.729.038 1.41-.171 1.969-.552.873-.596 1.958-.799 3.013-.743l1.457.076c1.465.077 2.611 1.238 2.743 2.699.237 2.623.827 5.241 1.79 7.784.51 1.347.005 2.864-1.242 3.584l-2.661 1.536c-1.126.65-2.453.759-3.716.452-1.183-.287-2.466-.167-3.622.426-2.591 1.329-3.611 4.678-2.194 7.222 1.429 2.565 4.675 3.456 7.209 1.993 1.234-.712 2.066-1.85 2.422-3.121.345-1.23 1.123-2.292 2.229-2.931l2.663-1.537c1.249-.721 2.816-.397 3.728.719 1.393 1.704 2.95 3.22 4.635 4.541 1.133.888 1.477 2.451.757 3.698l-2.032 3.52c-.59 1.022-1.553 1.744-2.661 2.152-.991.365-1.835 1.146-2.239 2.279-.501 1.403-.097 3.025 1.013 4.019 1.855 1.661 4.637 1.136 5.81-.897.456-.791.589-1.675.443-2.507-.203-1.16-.054-2.352.535-3.372l2.011-3.483c.714-1.236 2.229-1.79 3.553-1.256 1.766.713 3.596 1.255 5.463 1.619 1.401.273 2.371 1.563 2.296 2.988l-.086 1.647c-.052.987-.374 1.961-1.022 2.708-.615.709-.927 1.69-.717 2.763.224 1.144 1.101 2.1 2.221 2.425 2.093.607 4.061-.889 4.167-2.923.038-.729-.171-1.41-.552-1.969-.596-.873-.799-1.958-.743-3.013l.076-1.457c.077-1.465 1.238-2.611 2.699-2.743 2.624-.237 5.241-.827 7.784-1.79 1.347-.51 2.864-.005 3.584 1.242l1.257 2.177c.674 1.166.788 2.552.409 3.845-.435 1.48-.267 3.133.614 4.559 1.558 2.522 4.961 3.407 7.551 1.966 2.764-1.538 3.724-5.035 2.148-7.765-.819-1.418-2.159-2.344-3.638-2.68-1.285-.292-2.385-1.115-3.044-2.256l-1.257-2.177c-.721-1.249-.397-2.815.719-3.728 1.704-1.393 3.221-2.95 4.541-4.635.888-1.133 2.451-1.477 3.698-.757l3.52 2.032c1.022.59 1.744 1.553 2.152 2.661.365.992 1.146 1.835 2.28 2.24 1.403.5 3.025.097 4.019-1.013 1.661-1.855 1.136-4.636-.897-5.81-.79-.456-1.675-.589-2.507-.443-1.16.203-2.352.054-3.372-.535l-3.483-2.011c-1.237-.714-1.79-2.229-1.256-3.553.725-1.797 1.274-3.659 1.637-5.56.254-1.326 1.415-2.28 2.763-2.21l.096.005c1.28.067 2.423.711 3.286 1.658.953 1.047 2.402 1.641 4.005 1.392 1.692-.262 3.116-1.543 3.554-3.199.75-2.836-1.289-5.474-4.051-5.619-1.237-.065-2.381.385-3.227 1.161-.902.828-2.053 1.332-3.276 1.268-1.465-.077-2.611-1.238-2.742-2.699-.237-2.623-.827-5.241-1.79-7.784-.51-1.347-.005-2.864 1.242-3.584l1.249-.721c1.268-.732 2.784-.796 4.161-.297 1.728.627 3.71.517 5.427-.474 3.303-1.907 4.284-6.29 1.953-9.45-1.746-2.361-4.983-3.247-7.684-2.1z" fill="#fa759e"/></g><g><g><path d="m50.647 13.6c-.344-2.116.62-4.319 2.612-5.428 1.989-1.108 4.465-.722 6.088.735-.086-.525-.236-1.045-.49-1.541-1.329-2.591-4.678-3.611-7.222-2.193-2.565 1.429-3.456 4.675-1.993 7.209.272.473.623.867 1.005 1.218z" fill="#fff"/></g></g><g><path d="m88.774 27.86c1.5 2.598.61 5.921-1.988 7.421s-5.921.61-7.421-1.988-.61-5.921 1.988-7.421c2.599-1.501 5.921-.611 7.421 1.988z" fill="#ffd7e5"/></g><g><circle cx="59.125" cy="39.996" fill="#ffd7e5" r="7.156"/></g><g><path d="m70.898 58.894c.954 1.653.388 3.766-1.265 4.72s-3.766.388-4.72-1.265-.388-3.766 1.265-4.72c1.652-.954 3.765-.387 4.72 1.265z" fill="#ffd7e5"/></g><g><path d="m98.14 39.176c.954 1.653.388 3.766-1.265 4.72s-3.766.388-4.72-1.265-.388-3.766 1.265-4.72 3.766-.388 4.72 1.265z" fill="#ffd7e5"/></g><g><path d="m90.377 52.365c.78 1.351.317 3.079-1.034 3.86-1.351.78-3.079.317-3.86-1.034-.78-1.351-.317-3.08 1.034-3.86 1.351-.781 3.079-.318 3.86 1.034z" fill="#ffd7e5"/></g><g><path d="m99.246 54.795c.477.826.194 1.883-.632 2.36s-1.883.194-2.36-.632-.194-1.883.632-2.36 1.883-.194 2.36.632z" fill="#ffd7e5"/></g><g><path d="m85.617 64.658c.477.826.194 1.883-.632 2.36s-1.883.194-2.36-.632-.194-1.883.632-2.36 1.883-.194 2.36.632z" fill="#ffd7e5"/></g><g><path d="m77.578 66.826c.363.628.147 1.431-.481 1.794s-1.431.147-1.794-.481-.147-1.431.481-1.794c.628-.362 1.431-.147 1.794.481z" fill="#ffd7e5"/></g><g><path d="m69.719 24.431c.477.826.194 1.883-.632 2.36s-1.883.194-2.36-.632-.194-1.883.632-2.36 1.883-.194 2.36.632z" fill="#ffd7e5"/></g><g><path d="m72.864 46.025c.477.826.194 1.883-.632 2.36s-1.883.194-2.36-.632-.194-1.883.632-2.36 1.883-.195 2.36.632z" fill="#ffd7e5"/></g><g><path d="m86.416 39.484c.477.826.194 1.883-.632 2.36s-1.883.194-2.36-.632-.194-1.883.632-2.36c.826-.478 1.883-.195 2.36.632z" fill="#ffd7e5"/></g><g><path d="m56.242 54.909c.477.826.194 1.883-.632 2.36s-1.883.194-2.36-.632-.194-1.883.632-2.36c.827-.477 1.883-.194 2.36.632z" fill="#ffd7e5"/></g></g><g><g><path d="m49.629 93.9c-.889-.155-1.718.095-2.339.595-.6.483-1.369.706-2.139.706h-.336c-.978 0-1.813-.685-2.03-1.639-.374-1.643-1.03-3.178-1.915-4.553-.537-.834-.443-1.923.259-2.624.554-.554 1.278-.88 2.048-1.017.633-.113 1.231-.466 1.649-1.06.596-.847.61-2.007.032-2.866-.933-1.383-2.827-1.516-3.945-.399-.385.385-.62.861-.708 1.359-.133.754-.441 1.466-.983 2.008l-.033.033c-.701.701-1.79.795-2.624.259-1.374-.885-2.91-1.541-4.553-1.915-.954-.217-1.639-1.052-1.639-2.03v-.336c0-.77.223-1.539.706-2.139.5-.621.75-1.451.595-2.34-.202-1.159-1.123-2.103-2.277-2.328-1.861-.362-3.49 1.054-3.49 2.85 0 .687.239 1.317.638 1.814.485.604.709 1.379.709 2.154v.324c0 .978-.685 1.813-1.639 2.03-1.643.374-3.178 1.03-4.553 1.915-.834.537-1.923.442-2.624-.259-.554-.554-.879-1.278-1.017-2.048-.113-.633-.466-1.23-1.06-1.648-.847-.596-2.007-.611-2.866-.032-1.384.933-1.516 2.827-.399 3.945.385.385.861.62 1.359.708.754.133 1.466.441 2.008.983l.033.033c.701.701.795 1.79.259 2.624-.885 1.374-1.541 2.91-1.915 4.553-.217.954-1.052 1.639-2.03 1.639h-.336c-.77 0-1.539-.223-2.139-.706-.621-.5-1.451-.75-2.339-.595-1.159.202-2.103 1.122-2.328 2.277-.362 1.861 1.053 3.49 2.85 3.49.687 0 1.318-.239 1.814-.638.604-.485 1.379-.709 2.154-.709h.324c.978 0 1.813.685 2.03 1.639.374 1.643 1.03 3.178 1.915 4.553.537.834.442 1.923-.259 2.624-.553.553-1.278.879-2.048 1.017-.633.113-1.231.466-1.649 1.06-.596.847-.61 2.007-.031 2.866.933 1.383 2.827 1.516 3.945.398.385-.385.621-.861.708-1.359.133-.754.441-1.466.983-2.008l.033-.033c.701-.701 1.79-.796 2.624-.259 1.374.885 2.91 1.541 4.553 1.915.954.217 1.639 1.052 1.639 2.03v.336c0 .77-.223 1.539-.706 2.139-.5.621-.75 1.451-.595 2.339.202 1.159 1.122 2.104 2.277 2.328 1.861.362 3.49-1.054 3.49-2.85 0-.687-.239-1.317-.638-1.814-.485-.604-.709-1.379-.709-2.154v-.324c0-.978.685-1.813 1.639-2.03 1.643-.374 3.179-1.03 4.553-1.915.834-.537 1.923-.443 2.624.259.554.553.879 1.278 1.017 2.048.113.633.466 1.231 1.06 1.649.847.596 2.007.61 2.866.032 1.383-.933 1.516-2.827.399-3.945-.385-.385-.862-.621-1.359-.708-.754-.133-1.466-.441-2.008-.983l-.033-.033c-.701-.701-.795-1.79-.259-2.624.885-1.374 1.541-2.91 1.915-4.553.217-.954 1.052-1.639 2.03-1.639h.324c.775 0 1.549.223 2.154.709.497.399 1.127.638 1.814.638 1.796 0 3.212-1.629 2.85-3.491-.226-1.153-1.17-2.074-2.329-2.275z" fill="#fa759e"/><g fill="#3a2c60"><path d="m117.369 24.738c.121 1.342-.256 2.676-1.061 3.757-.33.443-.238 1.07.204 1.399.18.134.389.198.597.198.306 0 .606-.139.803-.402 1.1-1.477 1.614-3.299 1.449-5.132-.05-.55-.543-.949-1.086-.906-.55.05-.956.536-.906 1.086z"/><path d="m114.17 42.957c-1.47-.077-2.872.428-3.957 1.422-.756.694-1.654 1.052-2.547 1.006-.953-.05-1.71-.803-1.799-1.791-.248-2.752-.871-5.46-1.851-8.048-.342-.902-.002-1.896.807-2.364l1.249-.721c.965-.557 2.175-.638 3.318-.223 1.806.655 3.762.596 5.514-.167.506-.221.738-.81.518-1.316-.221-.506-.808-.739-1.316-.518-1.279.558-2.711.6-4.032.121-1.697-.617-3.522-.482-5.001.371l-1.249.721c-1.662.959-2.367 2.98-1.678 4.804.916 2.419 1.498 4.949 1.729 7.52.18 1.988 1.729 3.505 3.687 3.608 1.445.075 2.85-.469 4.004-1.529.686-.628 1.592-.941 2.499-.899 1.04.055 1.987.569 2.602 1.411.622.854.813 1.903.534 2.953-.337 1.273-1.438 2.264-2.74 2.466-1.185.185-2.321-.208-3.112-1.077-1.094-1.203-2.505-1.907-4.068-1.989-1.83-.109-3.45 1.203-3.798 3.021-.35 1.831-.882 3.639-1.581 5.373-.715 1.768.009 3.829 1.683 4.794l3.482 2.011c1.184.683 2.581.908 4.044.653.643-.112 1.274 0 1.835.323.726.419 1.217 1.135 1.35 1.963.134.84-.114 1.662-.698 2.314-.713.797-1.921 1.101-2.938.738-.796-.284-1.392-.868-1.678-1.643-.515-1.4-1.41-2.5-2.59-3.182l-3.52-2.032c-1.675-.967-3.771-.544-4.985 1.007-1.288 1.644-2.764 3.15-4.387 4.478-1.513 1.237-1.912 3.34-.952 5.002l1.257 2.177c.799 1.385 2.144 2.38 3.688 2.731 1.277.29 2.34 1.073 2.993 2.205.629 1.088.79 2.354.455 3.565-.335 1.21-1.124 2.214-2.224 2.826-2.142 1.193-4.928.464-6.215-1.618-.691-1.12-.876-2.488-.505-3.751.473-1.606.294-3.249-.502-4.627l-1.257-2.177c-.959-1.662-2.979-2.367-4.803-1.677-2.42.916-4.95 1.497-7.521 1.729-1.989.18-3.506 1.73-3.608 3.687l-.076 1.457c-.073 1.391.244 2.646.916 3.63.273.401.404.869.379 1.353-.035.684-.376 1.304-.936 1.701-.567.404-1.264.516-1.954.314-.757-.219-1.367-.885-1.518-1.657-.14-.709.035-1.39.49-1.916.76-.875 1.197-2.02 1.266-3.31l.087-1.648c.1-1.928-1.234-3.657-3.104-4.021-1.802-.351-3.578-.877-5.28-1.564-1.765-.712-3.827.011-4.793 1.683l-2.011 3.483c-.683 1.184-.909 2.583-.653 4.044.112.64 0 1.274-.324 1.834-.419.726-1.134 1.217-1.963 1.35-.835.134-1.662-.113-2.314-.698-.81-.725-1.106-1.905-.738-2.938.284-.796.867-1.392 1.643-1.677 1.4-.516 2.5-1.412 3.181-2.59l2.032-3.52c.966-1.674.543-3.771-1.007-4.985-1.645-1.29-3.151-2.766-4.478-4.387-1.236-1.512-3.339-1.912-5.002-.953l-2.663 1.538c-1.311.757-2.267 2.009-2.692 3.527-.301 1.072-.997 1.969-1.959 2.525-.994.574-2.148.722-3.256.416-1.105-.306-2.021-1.026-2.58-2.029-.543-.976-.661-2.174-.324-3.287.338-1.115 1.104-2.048 2.101-2.56.9-.462 1.941-.585 2.929-.344 1.581.384 3.163.187 4.453-.558l2.661-1.537c1.662-.959 2.368-2.98 1.677-4.803-.915-2.418-1.497-4.948-1.729-7.52-.18-1.988-1.729-3.505-3.687-3.608l-1.457-.076c-1.396-.071-2.645.244-3.629.916-.401.273-.865.406-1.354.38-.684-.036-1.304-.377-1.701-.936-.403-.567-.515-1.262-.314-1.955.219-.756.885-1.367 1.657-1.518.713-.139 1.391.035 1.916.491.876.76 2.021 1.197 3.311 1.265l1.647.086c1.925.113 3.658-1.233 4.022-3.103.351-1.801.877-3.578 1.564-5.281.713-1.768-.01-3.828-1.683-4.793l-2.801-1.618c-1.237-.713-2.75-.875-4.262-.455-.895.248-1.831.13-2.634-.333-.901-.521-1.513-1.409-1.677-2.438-.167-1.043.14-2.064.864-2.873.879-.981 2.311-1.366 3.562-.954 1.141.375 1.974 1.24 2.284 2.373.429 1.568 1.367 2.836 2.639 3.571l2.738 1.581c1.673.964 3.77.542 4.985-1.007 1.289-1.645 2.765-3.152 4.387-4.478 1.511-1.236 1.911-3.34.952-5.002l-1.538-2.663c-.757-1.311-2.01-2.267-3.527-2.692-1.072-.301-1.969-.997-2.525-1.96-.574-.993-.721-2.149-.416-3.254s1.026-2.022 2.029-2.581c.976-.543 2.174-.662 3.287-.324 1.116.338 2.048 1.104 2.56 2.1.462.901.584 1.942.344 2.93-.384 1.583-.186 3.164.558 4.452l1.537 2.661c.959 1.662 2.979 2.368 4.804 1.677 2.417-.915 4.948-1.497 7.52-1.729 1.987-.18 3.505-1.729 3.608-3.687l.041-.786c.071-1.364-.362-2.713-1.254-3.899-.391-.519-.578-1.135-.544-1.782.044-.836.458-1.6 1.136-2.093.688-.501 1.534-.654 2.379-.429 1.051.278 1.851 1.195 1.99 2.283.108.838-.141 1.634-.701 2.24-1.015 1.095-1.588 2.393-1.659 3.751l-.042.792c-.1 1.928 1.234 3.657 3.104 4.021 1.801.351 3.577.877 5.281 1.564 1.766.712 3.827-.011 4.793-1.683l2.011-3.482c.684-1.183.909-2.582.653-4.044-.112-.64 0-1.274.324-1.834.418-.726 1.134-1.217 1.962-1.35.842-.134 1.662.113 2.314.698.81.725 1.106 1.906.738 2.938-.283.796-.867 1.392-1.644 1.677-1.399.516-2.5 1.411-3.182 2.591l-2.031 3.52c-.967 1.674-.543 3.771 1.006 4.985 1.647 1.292 3.154 2.768 4.478 4.387 1.236 1.512 3.342 1.912 5.003.953l1.251-.722c1.512-.873 2.533-2.348 2.802-4.047.298-1.872 1.523-3.434 3.278-4.179 2.284-.97 5.011-.223 6.484 1.774.328.444.954.539 1.398.211s.539-.954.211-1.398c-2.018-2.733-5.748-3.754-8.875-2.427-2.394 1.017-4.065 3.15-4.472 5.706-.175 1.101-.841 2.059-1.827 2.628l-1.251.722c-.811.467-1.842.263-2.454-.486-1.417-1.733-3.029-3.313-4.792-4.695-.758-.594-.972-1.607-.508-2.411l2.031-3.519c.562-.973 1.474-1.469 2.141-1.714 1.323-.487 2.356-1.538 2.837-2.882.637-1.789.119-3.838-1.289-5.1-1.093-.979-2.531-1.411-3.965-1.183-1.426.228-2.657 1.076-3.378 2.324-.554.958-.753 2.087-.563 3.18.175.995.031 1.928-.415 2.699l-2.011 3.483c-.471.815-1.463 1.171-2.313.829-1.821-.735-3.722-1.298-5.646-1.673-.897-.175-1.537-1.015-1.488-1.954l.042-.792c.058-1.12.646-1.977 1.128-2.498.957-1.034 1.401-2.439 1.219-3.855-.243-1.884-1.635-3.476-3.463-3.96-1.416-.375-2.902-.104-4.068.746-1.167.851-1.88 2.165-1.956 3.605-.058 1.105.277 2.202.942 3.088.606.807.902 1.704.855 2.594l-.041.786c-.05.954-.803 1.71-1.79 1.799-2.753.249-5.461.871-8.048 1.851-.906.341-1.897.002-2.364-.807l-1.535-2.663c-.486-.841-.609-1.899-.347-2.98.354-1.454.173-2.986-.508-4.315-.757-1.477-2.127-2.607-3.759-3.102-1.628-.495-3.393-.315-4.84.491-1.475.822-2.535 2.169-2.983 3.795-.449 1.626-.232 3.326.611 4.787.819 1.418 2.139 2.443 3.717 2.886 1.012.284 1.841.911 2.334 1.766l1.538 2.663c.468.81.263 1.842-.485 2.454-1.736 1.419-3.315 3.031-4.695 4.792-.593.758-1.608.972-2.411.508l-2.738-1.581c-.813-.47-1.421-1.31-1.71-2.366-.483-1.766-1.824-3.166-3.588-3.746-1.997-.656-4.277-.043-5.676 1.52-1.117 1.249-1.608 2.897-1.349 4.523.26 1.626 1.227 3.032 2.652 3.855 1.272.733 2.752.921 4.17.528.987-.276 1.957-.184 2.726.261l2.802 1.618c.814.47 1.17 1.464.828 2.312-.735 1.821-1.298 3.721-1.673 5.646-.175.898-1.012 1.528-1.955 1.489l-1.647-.086c-.829-.043-1.576-.32-2.104-.778-.987-.855-2.302-1.199-3.611-.943-1.511.296-2.764 1.443-3.193 2.924-.369 1.273-.148 2.611.605 3.67s1.93 1.706 3.227 1.773c.92.048 1.819-.202 2.585-.725.783-.534 1.737-.602 2.397-.571l1.457.076c.954.05 1.71.804 1.799 1.791.249 2.753.871 5.461 1.851 8.048.341.902.002 1.896-.807 2.363l-2.661 1.536c-.841.486-1.899.609-2.98.347-1.456-.354-2.987-.174-4.314.508-1.477.757-2.607 2.127-3.102 3.759-.494 1.629-.315 3.393.491 4.839.821 1.475 2.169 2.535 3.794 2.984 1.628.45 3.328.232 4.789-.612 1.418-.819 2.443-2.139 2.885-3.717.284-1.012.911-1.841 1.766-2.334l2.663-1.538c.81-.468 1.842-.263 2.455.486 1.418 1.735 3.031 3.315 4.792 4.695.758.594.972 1.607.508 2.411l-2.032 3.52c-.561.971-1.473 1.468-2.14 1.713-1.323.487-2.356 1.537-2.836 2.882-.638 1.79-.121 3.839 1.288 5.1 1.093.979 2.539 1.411 3.963 1.183 1.426-.228 2.658-1.075 3.379-2.324.554-.958.753-2.087.562-3.18-.174-.994-.03-1.927.416-2.699l2.011-3.483c.47-.815 1.465-1.168 2.312-.829 1.82.735 3.719 1.297 5.646 1.673.898.175 1.538 1.015 1.489 1.954l-.087 1.647c-.043.829-.319 1.576-.778 2.104-.855.987-1.199 2.304-.942 3.611.296 1.511 1.443 2.765 2.924 3.193 1.273.369 2.611.148 3.67-.605 1.06-.753 1.706-1.929 1.774-3.227.048-.925-.202-1.818-.725-2.585-.535-.783-.605-1.735-.57-2.397l.076-1.458c.049-.953.802-1.709 1.79-1.798 2.751-.248 5.459-.871 8.049-1.851.899-.343 1.896-.002 2.362.807l1.257 2.177c.52.9.632 1.987.315 3.063-.53 1.808-.268 3.764.723 5.367 1.24 2.007 3.455 3.133 5.705 3.133 1.089 0 2.186-.264 3.184-.819 1.571-.875 2.7-2.31 3.179-4.041.479-1.732.248-3.542-.65-5.098-.922-1.596-2.482-2.746-4.282-3.155-1.004-.228-1.878-.877-2.399-1.781l-1.257-2.178c-.468-.809-.264-1.841.485-2.454 1.737-1.42 3.316-3.033 4.695-4.792.593-.758 1.606-.972 2.411-.508l3.52 2.032c.972.561 1.468 1.473 1.713 2.14.487 1.323 1.538 2.356 2.883 2.836 1.789.638 3.839.12 5.1-1.288.979-1.093 1.41-2.538 1.183-3.963-.228-1.426-1.074-2.658-2.325-3.38-.959-.553-2.09-.753-3.179-.561-.994.174-1.927.03-2.699-.416l-3.482-2.011c-.815-.47-1.172-1.464-.828-2.313.748-1.855 1.317-3.789 1.691-5.747.163-.854.883-1.437 1.823-1.394.939.049 1.862.523 2.6 1.333 1.232 1.354 3.062 1.989 4.897 1.707 2.075-.322 3.831-1.901 4.367-3.931.429-1.619.118-3.312-.852-4.643-.973-1.324-2.472-2.137-4.115-2.223z"/><path d="m49.8 92.914c-1.121-.194-2.263.097-3.138.802-.388.313-.925.485-1.512.485h-.336c-.505 0-.939-.354-1.055-.861-.395-1.734-1.084-3.374-2.049-4.872-.288-.448-.237-1.014.125-1.376.374-.374.898-.629 1.518-.74.927-.166 1.74-.688 2.291-1.469.836-1.19.853-2.798.042-4-.604-.897-1.561-1.47-2.623-1.572-1.057-.103-2.104.271-2.858 1.025-.518.518-.859 1.172-.986 1.893-.109.619-.346 1.115-.738 1.507-.362.362-.928.414-1.376.125-1.498-.964-3.137-1.654-4.872-2.049-.507-.115-.861-.549-.861-1.055v-.336c0-.587.172-1.124.485-1.512.705-.875.997-2.019.802-3.138-.274-1.573-1.508-2.834-3.072-3.138-1.165-.226-2.354.071-3.258.816-.905.745-1.423 1.845-1.423 3.016 0 .884.305 1.751.858 2.44.315.392.488.935.488 1.528v.324c0 .505-.354.939-.861 1.055-1.735.396-3.374 1.085-4.872 2.049-.446.288-1.014.237-1.375-.125-.374-.374-.629-.898-.74-1.517-.166-.928-.688-1.741-1.469-2.29-1.189-.837-2.797-.854-4-.043-.896.604-1.47 1.561-1.572 2.623-.102 1.063.271 2.104 1.026 2.858.518.518 1.172.859 1.893.986.619.109 1.115.346 1.507.739.362.361.413.927.125 1.375-.965 1.499-1.654 3.138-2.049 4.872-.115.507-.549.861-1.055.861h-.336c-.587 0-1.124-.172-1.512-.485-.875-.705-2.019-.996-3.138-.802-1.573.274-2.834 1.508-3.138 3.072-.227 1.167.07 2.354.816 3.258.745.904 1.844 1.423 3.015 1.423.884 0 1.75-.305 2.44-.858.392-.315.935-.488 1.528-.488h.325c.505 0 .939.354 1.055.861.395 1.734 1.084 3.374 2.049 4.872.289.448.237 1.013-.125 1.375-.374.373-.898.629-1.518.74-.928.166-1.741.688-2.29 1.469-.837 1.19-.854 2.798-.042 4 .604.896 1.561 1.47 2.623 1.572 1.06.099 2.105-.271 2.858-1.026.519-.519.859-1.173.986-1.893.109-.619.346-1.115.738-1.507.362-.362.927-.415 1.376-.125 1.498.964 3.137 1.654 4.872 2.049.507.115.86.549.86 1.055v.335c0 .587-.172 1.124-.484 1.512-.705.875-.997 2.019-.802 3.139.274 1.573 1.509 2.834 3.072 3.138.256.05.514.075.77.075.906 0 1.783-.309 2.488-.89.905-.746 1.423-1.845 1.423-3.016 0-.884-.305-1.751-.858-2.441-.315-.392-.488-.934-.488-1.527v-.324c0-.506.354-.939.861-1.055 1.735-.396 3.375-1.085 4.872-2.049.448-.289 1.013-.237 1.376.125.374.374.629.898.74 1.517.166.928.688 1.741 1.469 2.29 1.188.836 2.796.854 4 .043.897-.605 1.47-1.561 1.572-2.623.102-1.063-.271-2.104-1.026-2.858-.518-.518-1.172-.858-1.893-.986-.619-.109-1.115-.346-1.507-.738-.362-.362-.414-.928-.125-1.375.965-1.498 1.654-3.137 2.049-4.872.115-.507.549-.861 1.055-.861h.325c.593 0 1.136.173 1.527.488.689.554 1.556.858 2.441.858 1.171 0 2.27-.519 3.015-1.423s1.043-2.092.816-3.259c-.306-1.562-1.567-2.797-3.14-3.071zm.779 5.058c-.642.779-1.875.908-2.66.277-.746-.599-1.733-.929-2.78-.929h-.325c-1.445 0-2.681.994-3.005 2.417-.343 1.507-.942 2.932-1.781 4.233-.802 1.247-.641 2.839.426 3.906.646.646 1.524 1.082 2.541 1.261.314.055.6.204.826.43.33.33.494.787.449 1.252-.046.472-.294.883-.7 1.157-.512.345-1.225.336-1.732-.021-.444-.313-.599-.72-.65-1.006-.183-1.023-.63-1.915-1.294-2.579-1.034-1.034-2.626-1.195-3.873-.393-1.301.838-2.726 1.437-4.233 1.781-1.423.324-2.417 1.559-2.417 3.005v.324c0 1.047.33 2.035.929 2.78.273.34.417.751.417 1.188 0 .572-.253 1.108-.695 1.473-.448.369-1.018.509-1.604.396-.743-.145-1.353-.769-1.483-1.518-.098-.561.041-1.108.389-1.541.598-.742.927-1.725.927-2.767v-.335c0-1.446-.994-2.682-2.417-3.005-1.507-.344-2.932-.943-4.233-1.781-.525-.338-1.113-.506-1.696-.506-.8 0-1.593.314-2.21.931-.646.646-1.081 1.525-1.26 2.542-.055.313-.204.599-.43.825-.33.331-.791.493-1.252.449-.472-.046-.883-.294-1.157-.7-.345-.511-.336-1.223.021-1.731.244-.347.602-.578 1.007-.65 1.023-.184 1.915-.631 2.579-1.295 1.034-1.034 1.195-2.626.392-3.872-.838-1.302-1.437-2.727-1.78-4.234-.324-1.423-1.56-2.417-3.005-2.417h-.325c-1.047 0-2.034.33-2.78.929-.787.632-2.018.503-2.661-.277-.369-.448-.51-1.018-.396-1.604.145-.743.769-1.353 1.518-1.483.563-.097 1.108.041 1.541.388.742.598 1.724.928 2.767.928h.336c1.445 0 2.681-.994 3.005-2.417.343-1.507.942-2.931 1.78-4.233.803-1.247.642-2.84-.425-3.906-.646-.646-1.524-1.082-2.541-1.261-.314-.055-.6-.204-.826-.431-.33-.331-.494-.787-.449-1.252.046-.472.294-.883.7-1.156.513-.345 1.225-.336 1.732.021.444.313.599.72.65 1.006.183 1.023.63 1.915 1.294 2.579 1.033 1.034 2.626 1.195 3.872.393 1.302-.838 2.727-1.437 4.234-1.781 1.423-.324 2.417-1.56 2.417-3.005v-.324c0-1.047-.33-2.035-.929-2.781-.273-.34-.418-.75-.418-1.188 0-.572.253-1.108.695-1.473.448-.369 1.018-.51 1.604-.396.743.145 1.353.769 1.483 1.518.098.561-.04 1.108-.388 1.541-.598.742-.928 1.724-.928 2.766v.336c0 1.445.994 2.681 2.417 3.005 1.508.344 2.932.943 4.234 1.781 1.246.803 2.839.641 3.905-.426.646-.646 1.082-1.524 1.261-2.541.055-.314.205-.6.431-.826.331-.33.791-.494 1.252-.449.473.045.883.294 1.157.7.345.511.336 1.223-.021 1.73-.244.347-.602.578-1.006.651-1.023.183-1.916.63-2.58 1.294-1.034 1.033-1.195 2.625-.393 3.873.839 1.302 1.438 2.726 1.781 4.233.324 1.423 1.56 2.417 3.005 2.417h.336c1.042 0 2.024-.329 2.767-.927.432-.348.978-.485 1.54-.389.75.13 1.374.74 1.519 1.482.112.59-.028 1.16-.398 1.608z"/></g></g><g><path d="m32.192 88.327c1.078 1.867.438 4.254-1.429 5.332s-4.254.438-5.332-1.429-.438-4.254 1.429-5.332 4.255-.438 5.332 1.429z" fill="#ffd7e5"/></g><g><path d="m38.55 98.168c.602 1.043.245 2.377-.798 2.979s-2.377.245-2.979-.798-.245-2.377.798-2.979c1.043-.603 2.377-.245 2.979.798z" fill="#ffd7e5"/></g><g><path d="m32.974 102.085c.356.617.145 1.405-.472 1.761-.616.356-1.405.145-1.761-.472s-.145-1.405.472-1.761 1.405-.145 1.761.472z" fill="#ffd7e5"/></g><g><path d="m25.066 98.545c.81 1.404.329 3.198-1.074 4.009-1.404.81-3.198.329-4.009-1.074-.81-1.404-.33-3.198 1.074-4.009s3.199-.33 4.009 1.074z" fill="#ffd7e5"/></g></g></g></g></svg>